<?xml version="1.0" encoding="UTF-8" standalone="no"?>
<!-- Generator: Adobe Illustrator 19.0.0, SVG Export Plug-In . SVG Version: 6.00 Build 0)  -->

<svg
   xmlns:dc="http://purl.org/dc/elements/1.1/"
   xmlns:cc="http://creativecommons.org/ns#"
   xmlns:rdf="http://www.w3.org/1999/02/22-rdf-syntax-ns#"
   xmlns:svg="http://www.w3.org/2000/svg"
   xmlns="http://www.w3.org/2000/svg"
   xmlns:sodipodi="http://sodipodi.sourceforge.net/DTD/sodipodi-0.dtd"
   xmlns:inkscape="http://www.inkscape.org/namespaces/inkscape"
   version="1.1"
   id="Layer_1"
   x="0px"
   y="0px"
   viewBox="0 0 115.80466 83.100845"
   xml:space="preserve"
   inkscape:version="0.91 r13725"
   sodipodi:docname="test.svg"
   width="115.80466"
   height="83.100845"><metadata
     id="metadata3394"><rdf:RDF><cc:Work
         rdf:about=""><dc:format>image/svg+xml</dc:format><dc:type
           rdf:resource="http://purl.org/dc/dcmitype/StillImage" /><dc:title></dc:title></cc:Work></rdf:RDF></metadata><defs
     id="defs3392" /><sodipodi:namedview
     pagecolor="#ffffff"
     bordercolor="#666666"
     borderopacity="1"
     objecttolerance="10"
     gridtolerance="10"
     guidetolerance="10"
     inkscape:pageopacity="0"
     inkscape:pageshadow="2"
     inkscape:window-width="1280"
     inkscape:window-height="751"
     id="namedview3390"
     showgrid="false"
     fit-margin-top="0"
     fit-margin-left="0"
     fit-margin-right="0"
     fit-margin-bottom="0"
     inkscape:zoom="4.575"
     inkscape:cx="58.049998"
     inkscape:cy="41.5"
     inkscape:window-x="0"
     inkscape:window-y="0"
     inkscape:window-maximized="1"
     inkscape:current-layer="Layer_1" /><style
     type="text/css"
     id="style3386">
	.st0{fill:#FFFFFF;}
</style><path
     class="st0"
     d="M 101.8,10.500846 C 87.5,-0.1991542 73.9,0.1008458 73.9,0.1008458 l -1.4,1.6 c 16.9,5.1 24.7,12.6000002 24.7,12.6000002 C 86.9,8.7008458 76.7,5.9008458 67.3,4.8008458 c -7.2,-0.8 -14,-0.6 -20.1,0.2 -0.6,0.1 -1.1,0.2 -1.7,0.2 -3.5,0.3 -11.9,1.6 -22.5,6.2000002 -3.8,1.6 -5.9,2.8 -5.9,2.8 0,0 8.2,-7.9000002 26.1,-13.0000002 l -1,-1.20000000158 c 0,0 -13.6,-0.29999999842 -27.9,10.40000020158 0,0 -14.3,25.8 -14.3,57.6 0,0 8.4,14.4 30.3,15.1 0,0 3.6,-4.4 6.6,-8.2 -12.6,-3.7 -17.4,-11.6 -17.4,-11.6 0,0 1,0.7 2.7,1.7 0.1,0.1 0.3,0.2 0.4,0.2 0.3,0.2 0.6,0.3 0.9,0.5 2.6,1.4 5,2.5 7.3,3.4 4,1.6 8.9,3.2 14.6,4.2 7.5,1.4 16.2,1.8 25.7,0.1 4.7,-0.9 9.5,-2.2 14.4,-4.3 3.5,-1.3 7.3,-3.2 11.5,-5.9 0,0 -4.9,8.1 -18,11.8 3,3.7 6.5,8 6.5,8 21.9,-0.7 30.3,-15.1 30.3,-15.1 0.3,-31.7 -14,-57.4 -14,-57.4 z m -62.2,48.3 c -5.6,0 -10.2,-4.9 -10.2,-10.9 0,-6 4.5,-10.9 10.2,-10.9 5.6,0 10.2,4.9 10.2,10.9 0,6 -4.6,10.9 -10.2,10.9 z m 36.2,0 c -5.6,0 -10.2,-4.9 -10.2,-10.9 0,-6 4.5,-10.9 10.2,-10.9 5.6,0 10.2,4.9 10.2,10.9 0,6 -4.6,10.9 -10.2,10.9 z"
     id="path3388"
     inkscape:connector-curvature="0"
     style="fill:#ffffff" /></svg>